<?xml version="1.0" standalone="no"?>
<!DOCTYPE svg PUBLIC "-//W3C//DTD SVG 20010904//EN"
 "http://www.w3.org/TR/2001/REC-SVG-20010904/DTD/svg10.dtd">
<svg version="1.0" xmlns="http://www.w3.org/2000/svg"
 width="360.000000pt" height="360.000000pt" viewBox="0 0 360.000000 360.000000"
 preserveAspectRatio="xMidYMid meet">
<metadata>
Created by potrace 1.10, written by Peter Selinger 2001-2011
</metadata>
<g transform="translate(0.000000,360.000000) scale(0.100000,-0.100000)"
fill="#000000" stroke="none">
<path d="M935 3536 c-399 -87 -674 -325 -828 -716 -48 -121 -66 -231 -62 -380
3 -154 16 -233 50 -322 36 -97 95 -219 126 -265 16 -23 29 -47 29 -54 0 -7
-20 -46 -44 -88 -54 -93 -107 -219 -136 -326 -20 -70 -22 -102 -21 -251 2
-197 15 -264 79 -416 142 -339 442 -580 822 -658 64 -14 306 -8 390 9 150 29
269 79 405 168 27 18 54 33 59 33 4 0 45 -22 90 -49 135 -82 271 -130 443
-156 118 -18 158 -17 312 9 117 20 201 47 310 100 296 142 489 378 571 701 26
101 30 133 30 255 0 218 -49 396 -160 577 -27 45 -50 89 -50 98 0 9 11 31 24
48 35 47 79 140 115 241 112 317 94 584 -60 867 -102 188 -269 350 -469 453
-162 83 -241 106 -433 128 -83 9 -114 8 -195 -6 -180 -32 -338 -92 -461 -175
-33 -23 -64 -41 -68 -41 -4 0 -28 14 -53 31 -164 110 -412 194 -610 204 -77 4
-116 0 -205 -19z m320 -32 c81 -16 152 -32 180 -44 11 -4 43 -16 70 -25 68
-24 168 -76 239 -124 34 -23 65 -37 70 -32 36 26 157 100 186 113 117 52 157
69 180 73 3 0 28 6 55 13 97 23 121 25 230 25 474 -1 906 -337 1032 -803 13
-49 18 -104 18 -220 0 -85 -3 -168 -6 -185 -37 -173 -98 -326 -175 -438 -19
-27 -34 -54 -34 -59 0 -6 13 -27 30 -47 16 -21 47 -71 69 -112 52 -97 76 -162
107 -294 14 -57 16 -347 4 -405 -74 -339 -264 -588 -559 -730 -249 -120 -535
-147 -776 -73 -105 33 -218 84 -290 133 -84 56 -77 56 -165 -5 -113 -78 -269
-140 -404 -160 -21 -3 -43 -8 -48 -11 -18 -11 -263 -7 -318 5 -244 55 -443
165 -598 330 -44 47 -122 154 -122 167 0 4 -6 15 -14 23 -15 16 -92 197 -101
235 -29 123 -35 175 -34 299 1 76 5 150 9 165 5 15 14 47 20 72 29 111 113
291 182 391 9 14 4 28 -28 75 -71 107 -164 324 -164 384 0 15 -3 30 -7 34 -10
9 -11 34 -13 176 -1 186 39 338 136 520 30 56 105 164 124 180 3 3 19 21 35
42 64 78 233 194 346 238 30 11 63 25 74 30 25 12 136 39 195 46 25 4 47 8 50
11 9 8 145 0 215 -13z"/>
<path d="M1025 3339 c-52 -8 -56 -9 -140 -29 -70 -17 -214 -91 -283 -143 -62
-49 -124 -112 -162 -167 -13 -19 -27 -37 -30 -40 -20 -18 -84 -146 -111 -221
-53 -149 -64 -330 -29 -470 36 -146 95 -285 140 -333 18 -18 20 -17 104 39 47
31 86 58 86 60 0 1 -22 49 -50 106 -27 57 -57 131 -66 164 -18 65 -28 241 -14
250 4 3 11 28 15 55 4 27 11 52 16 56 5 3 9 12 9 19 0 27 91 164 144 218 94
95 226 169 351 198 28 6 102 12 165 12 129 1 207 -18 300 -73 28 -16 54 -30
58 -30 26 0 131 -143 363 -492 144 -219 266 -398 270 -398 7 0 109 68 149 99
21 17 23 23 13 38 -7 10 -21 35 -33 56 -11 21 -25 44 -30 50 -6 7 -39 57 -75
112 -35 55 -68 105 -73 111 -5 5 -15 21 -22 34 -7 13 -17 29 -22 34 -11 14
-63 94 -108 169 -19 31 -38 57 -42 57 -4 0 -8 4 -8 10 0 16 -79 123 -136 183
-31 32 -83 78 -115 102 -61 45 -199 120 -199 109 0 -4 -6 -2 -12 4 -48 38
-308 70 -423 51z m315 -55 c80 -22 107 -33 185 -72 141 -71 245 -170 359 -343
285 -433 360 -549 378 -583 l20 -39 -29 -24 c-41 -34 -78 -53 -89 -45 -6 4
-126 180 -266 392 -141 212 -275 404 -299 427 -52 49 -201 126 -279 144 -68
16 -224 16 -306 0 -84 -16 -173 -53 -258 -109 -187 -122 -308 -320 -332 -542
-8 -79 25 -220 81 -337 25 -53 45 -99 45 -104 0 -12 -112 -79 -123 -72 -20 12
-88 174 -113 269 -24 91 -26 110 -21 239 5 148 20 210 83 342 29 61 110 180
158 231 115 124 309 217 511 246 54 8 239 -5 295 -20z"/>
<path d="M2419 3346 c-2 -2 -22 -6 -44 -9 -22 -3 -47 -8 -55 -10 -8 -2 -31 -7
-50 -11 -89 -19 -327 -127 -337 -152 -4 -11 103 -184 114 -184 3 0 24 13 47
28 42 29 110 63 130 66 6 1 16 5 23 9 43 27 276 38 367 17 164 -37 330 -153
421 -296 102 -159 126 -394 60 -583 -53 -151 -121 -221 -376 -389 -101 -67
-193 -129 -204 -138 -11 -8 -30 -20 -42 -25 -13 -5 -23 -13 -23 -19 0 -5 -5
-10 -12 -10 -6 0 -26 -11 -44 -25 -18 -14 -36 -25 -39 -25 -4 0 -13 -6 -20
-12 -8 -7 -59 -42 -114 -78 l-100 -64 22 -36 c12 -19 25 -39 29 -45 40 -50 67
-88 71 -98 3 -9 9 -7 23 4 10 9 26 19 34 22 8 4 38 22 65 41 93 64 139 96 278
189 76 51 146 97 155 102 9 6 57 37 105 70 48 33 109 73 134 88 55 33 143 123
143 145 0 5 7 16 16 23 9 8 37 54 61 104 121 246 135 546 34 745 -57 112 -118
210 -132 210 -5 0 -9 6 -9 13 0 14 -97 110 -170 168 -101 80 -229 133 -385
159 -52 9 -169 13 -176 6z m181 -46 c187 -36 282 -82 418 -201 118 -103 236
-283 279 -424 27 -90 25 -310 -4 -425 -37 -147 -125 -312 -210 -392 -15 -15
-165 -118 -333 -230 -168 -112 -318 -213 -335 -224 -104 -71 -146 -96 -158
-91 -14 5 -77 94 -77 108 0 5 165 118 368 252 202 135 388 264 415 287 110 97
192 264 204 415 7 90 -10 235 -36 313 -60 176 -207 330 -389 407 -108 45 -166
55 -317 51 -139 -4 -211 -23 -312 -81 -23 -14 -48 -25 -55 -25 -16 0 -81 97
-73 109 9 16 109 67 180 93 59 22 118 38 230 61 36 8 159 6 205 -3z"/>
<path d="M1100 2962 c-119 -9 -272 -88 -363 -187 -117 -128 -151 -337 -80
-495 37 -84 72 -140 86 -140 7 0 30 11 52 25 22 13 58 34 80 46 67 36 67 36
42 82 -12 23 -26 45 -32 49 -5 4 -6 8 -1 8 5 0 3 7 -4 15 -18 22 -24 126 -10
171 20 63 73 119 145 155 59 29 71 31 137 27 107 -7 154 -38 229 -153 32 -49
63 -94 67 -100 4 -5 41 -60 81 -122 l73 -111 36 20 c19 11 50 31 69 45 18 14
33 22 33 19 0 -4 12 1 26 10 20 14 24 22 19 43 -4 14 -13 33 -21 42 -8 8 -14
19 -14 22 0 4 -39 69 -86 145 -47 75 -91 146 -97 156 -22 37 -32 49 -79 97
-47 47 -152 107 -199 113 -13 2 -31 6 -39 9 -20 7 -106 13 -150 9z m190 -59
c60 -16 117 -48 167 -91 44 -38 283 -411 283 -441 0 -13 -111 -83 -124 -78 -6
3 -69 90 -139 195 -119 179 -132 193 -190 229 -59 36 -66 38 -147 38 -78 0
-90 -3 -148 -34 -113 -61 -166 -144 -167 -256 0 -55 6 -82 28 -129 15 -32 27
-62 27 -67 0 -5 -26 -25 -57 -45 -41 -26 -61 -34 -73 -27 -8 5 -31 40 -50 78
-31 63 -35 80 -38 167 -6 152 35 249 147 349 134 121 306 161 481 112z"/>
<path d="M2378 2955 c-3 -3 -14 -7 -24 -10 -63 -13 -164 -64 -191 -96 -9 -12
-1 -32 38 -99 27 -47 50 -89 52 -95 2 -6 23 0 48 14 24 13 58 31 74 40 44 24
149 20 205 -6 55 -26 110 -82 141 -143 17 -35 22 -62 22 -120 1 -113 -33 -165
-159 -241 -32 -20 -119 -74 -192 -120 -73 -46 -140 -88 -149 -94 -9 -5 -62
-39 -117 -74 -56 -35 -126 -79 -156 -98 -30 -19 -86 -55 -124 -79 -38 -24 -73
-44 -77 -44 -5 0 -9 -4 -9 -10 0 -5 -5 -10 -10 -10 -9 0 -87 -47 -100 -60 -3
-3 -17 -11 -32 -19 -16 -8 -28 -19 -28 -26 0 -6 22 -45 48 -86 27 -41 51 -82
55 -91 3 -10 11 -18 18 -18 6 0 85 50 176 110 91 60 167 110 170 110 3 0 15 8
28 18 12 9 31 22 41 29 11 7 43 28 71 48 29 19 56 35 59 35 4 0 31 18 60 40
29 22 57 40 62 40 4 0 17 8 28 18 10 10 48 35 84 57 35 22 100 63 143 92 43
29 83 53 88 53 5 0 9 4 9 9 0 5 12 14 28 20 34 14 122 93 122 109 0 7 3 12 8
12 4 0 20 23 35 50 16 28 26 50 22 50 -3 0 2 15 12 33 27 52 24 203 -6 297
-14 41 -30 82 -36 90 -6 8 -17 28 -25 44 -38 75 -201 198 -277 209 -12 2 -26
6 -29 10 -8 8 -198 10 -206 2z m232 -51 c97 -29 207 -117 257 -205 49 -87 68
-160 68 -264 0 -95 -2 -104 -37 -175 -48 -97 -88 -135 -283 -260 -88 -57 -225
-146 -305 -198 -80 -52 -176 -116 -215 -140 -38 -25 -90 -59 -115 -75 -279
-189 -253 -179 -295 -112 -59 91 -76 68 159 215 153 96 199 125 296 187 178
113 405 256 470 296 88 55 116 82 146 144 54 110 27 247 -71 352 -60 64 -128
94 -216 95 -55 1 -75 -4 -127 -31 -34 -18 -64 -33 -66 -33 -9 0 -66 108 -66
123 0 21 36 44 113 73 77 28 206 32 287 8z"/>
<path d="M2400 2564 c-52 -35 -52 -40 -4 -117 77 -124 75 -122 117 -102 67 31
89 104 53 173 -30 57 -114 80 -166 46z m119 -48 c29 -31 32 -87 6 -116 -10
-11 -24 -20 -31 -20 -17 0 -84 104 -84 129 0 38 75 43 109 7z"/>
<path d="M1057 2530 c-38 -38 -39 -41 -35 -94 2 -30 12 -66 21 -80 l17 -26 48
30 c110 68 147 96 150 112 2 10 -12 34 -30 53 -28 30 -42 37 -82 40 -45 4 -51
1 -89 -35z m117 -11 c36 -17 41 -40 14 -62 -41 -34 -107 -69 -118 -62 -13 8
-13 71 1 96 18 34 62 46 103 28z"/>
<path d="M1330 2317 c-14 -7 -50 -30 -80 -50 -66 -45 -65 -44 -160 -104 -41
-26 -78 -51 -81 -56 -3 -5 -9 -8 -13 -8 -6 1 -87 -49 -96 -60 -3 -3 -19 -13
-36 -22 -16 -8 -78 -47 -136 -86 -59 -39 -110 -71 -113 -71 -4 0 -32 -20 -64
-44 -53 -41 -70 -58 -140 -141 -37 -45 -117 -204 -142 -285 -20 -64 -23 -96
-23 -225 0 -130 4 -163 26 -245 50 -183 130 -321 264 -451 45 -45 156 -129
169 -129 3 0 28 -11 57 -25 28 -13 67 -28 87 -31 20 -4 41 -10 46 -15 6 -4 62
-15 125 -24 115 -15 199 -14 275 7 22 5 47 11 55 13 90 17 226 82 292 138 l37
32 -27 37 c-99 133 -105 140 -116 127 -9 -12 -86 -53 -93 -50 -2 0 -23 -8 -48
-19 -113 -49 -363 -56 -465 -13 -8 3 -19 7 -25 8 -27 7 -144 69 -174 93 -110
88 -168 168 -222 304 -62 157 -54 342 20 501 31 65 126 190 173 226 43 33 128
91 134 91 3 0 34 20 68 45 35 25 66 45 69 45 3 0 42 25 86 55 44 30 84 55 87
55 4 0 22 11 40 25 18 14 36 25 40 25 4 0 21 10 38 23 17 13 69 47 116 76 47
30 86 55 88 56 6 5 -21 55 -30 55 -4 0 -8 4 -8 10 0 9 -68 120 -73 120 -1 0
-13 -6 -27 -13z m53 -92 c15 -25 27 -52 27 -59 0 -8 -55 -49 -122 -91 -371
-235 -583 -374 -624 -412 -158 -142 -243 -347 -231 -553 15 -260 169 -486 406
-596 113 -53 192 -67 341 -61 129 5 190 20 305 74 l50 23 43 -44 c23 -25 42
-52 42 -60 0 -51 -245 -151 -420 -172 -155 -18 -412 51 -548 146 -169 119
-298 315 -352 539 -20 84 -22 109 -17 235 4 78 13 162 21 187 28 89 96 218
155 292 71 90 60 81 561 402 78 50 176 113 218 142 42 28 86 52 97 52 14 1 29
-14 48 -44z"/>
<path d="M1810 2169 c-77 -47 -73 -44 -219 -138 -64 -40 -142 -91 -174 -112
-32 -22 -61 -39 -66 -39 -4 0 -16 -9 -26 -20 -10 -11 -21 -20 -26 -20 -7 0
-140 -82 -247 -152 -32 -21 -68 -43 -82 -50 -14 -7 -27 -15 -30 -18 -3 -3 -38
-27 -78 -54 -68 -45 -152 -137 -152 -166 0 -5 -4 -10 -8 -10 -24 0 -72 -157
-72 -235 0 -130 55 -274 136 -357 36 -37 135 -108 157 -112 7 -2 21 -7 32 -11
11 -4 35 -14 54 -21 61 -25 148 -34 209 -22 31 6 61 15 66 19 6 5 17 9 26 9
27 0 138 59 144 77 4 9 -1 25 -12 37 -10 12 -33 44 -51 73 -49 78 -51 79 -118
47 -89 -43 -217 -41 -261 3 -7 7 -18 13 -23 13 -18 0 -82 75 -102 120 -26 59
-29 172 -5 216 18 33 90 114 101 114 3 0 45 26 93 58 47 31 115 75 150 97 36
23 72 46 82 53 9 6 37 25 62 41 25 16 65 41 89 57 24 16 51 34 60 39 8 6 37
25 63 43 26 17 52 32 57 32 5 0 11 3 13 8 3 7 95 72 103 72 2 0 33 20 69 45
37 25 68 45 71 45 13 0 115 76 115 85 0 5 -10 21 -21 35 -11 14 -38 51 -60 83
-22 31 -43 57 -47 57 -4 -1 -36 -19 -72 -41z m109 -66 c45 -63 44 -68 -18
-105 -36 -22 -165 -106 -416 -270 -71 -46 -164 -106 -205 -133 -372 -238 -413
-274 -446 -383 -39 -129 43 -293 182 -362 68 -34 177 -34 252 -1 49 22 54 23
71 7 10 -10 29 -37 42 -61 30 -56 22 -65 -84 -101 -117 -40 -193 -38 -313 10
-209 84 -314 237 -314 456 0 87 25 159 88 252 51 76 57 81 257 210 184 119
214 138 265 167 51 29 425 269 478 306 32 23 106 65 114 65 3 0 25 -26 47 -57z"/>
<path d="M3110 1629 c-83 -59 -110 -81 -110 -90 0 -4 16 -30 35 -59 35 -52 79
-174 89 -246 18 -136 17 -143 -4 -231 -36 -145 -103 -269 -188 -350 -65 -62
-205 -132 -316 -158 -180 -42 -466 20 -578 127 -61 59 -160 187 -238 308 -30
47 -57 87 -60 90 -3 3 -14 21 -24 40 -17 31 -94 149 -209 319 -61 91 -53 89
-151 29 -47 -29 -86 -59 -86 -66 0 -7 19 -40 43 -73 52 -75 50 -73 166 -249
53 -80 99 -149 103 -155 5 -5 56 -82 114 -170 123 -186 133 -198 239 -277 163
-123 353 -190 520 -184 157 5 366 71 492 156 24 17 46 30 49 30 17 0 186 168
221 220 69 104 117 231 134 356 11 84 8 291 -5 348 -18 76 -77 228 -96 246 -3
3 -19 24 -36 47 l-31 43 -73 -51z m103 -55 c19 -25 49 -92 68 -147 34 -101 34
-103 34 -282 0 -208 -13 -263 -92 -418 -88 -171 -287 -332 -498 -402 -96 -32
-218 -55 -292 -55 -154 0 -336 70 -496 192 -92 70 -83 58 -334 438 -107 162
-203 306 -214 320 -10 14 -30 44 -44 68 -31 50 -28 56 44 96 l50 27 91 -133
c50 -73 106 -157 123 -185 166 -275 332 -490 420 -544 58 -36 199 -84 296
-100 170 -30 357 17 534 135 111 74 205 228 252 409 24 97 25 100 10 200 -18
124 -43 210 -84 283 -18 30 -29 59 -26 65 8 12 107 79 117 79 4 0 23 -21 41
-46z"/>
<path d="M2810 1428 c-78 -47 -140 -89 -140 -94 0 -3 8 -17 17 -31 49 -74 66
-189 39 -254 -54 -126 -163 -187 -312 -176 -108 8 -133 31 -295 277 -73 110
-135 198 -138 196 -43 -20 -171 -104 -171 -112 0 -6 8 -22 18 -35 10 -13 39
-57 63 -97 74 -124 83 -137 129 -213 91 -150 203 -232 351 -259 62 -12 200 -7
223 8 6 3 16 7 22 8 20 3 120 53 164 83 25 16 54 45 64 63 11 18 22 35 26 38
11 9 70 136 70 151 0 8 5 20 10 25 15 15 25 89 24 169 -1 77 -37 183 -82 243
-29 38 -36 39 -82 10z m70 -60 c41 -65 63 -164 57 -244 -7 -77 -15 -99 -79
-231 -47 -99 -83 -132 -198 -187 -84 -40 -86 -41 -200 -40 -133 0 -187 17
-278 86 -55 41 -102 106 -252 352 l-72 120 27 22 c42 33 72 47 88 41 8 -3 63
-78 122 -168 126 -189 153 -221 211 -255 57 -34 167 -43 242 -21 122 37 217
149 229 271 4 39 -1 68 -21 122 -14 39 -26 78 -26 85 0 18 89 78 118 79 7 0
21 -15 32 -32z"/>
<path d="M1063 1234 c-36 -28 -59 -88 -49 -127 8 -35 64 -86 102 -93 38 -7 63
0 98 27 l25 20 -28 47 c-53 90 -96 152 -106 152 -5 0 -25 -12 -42 -26z m86
-93 c35 -53 39 -76 15 -85 -30 -11 -53 -6 -83 20 -33 28 -39 59 -20 97 26 48
40 43 88 -32z"/>
<path d="M2438 1184 c-55 -36 -98 -72 -98 -81 0 -8 17 -33 39 -54 50 -51 98
-53 159 -10 49 36 54 44 59 91 5 41 -28 120 -50 120 -6 -1 -56 -30 -109 -66z
m110 4 c15 -15 15 -68 -1 -88 -22 -28 -61 -50 -89 -50 -27 0 -68 30 -68 50 0
8 126 97 141 99 3 1 10 -4 17 -11z"/>
</g>
</svg>
